<mxfile host="Electron" agent="Mozilla/5.0 (Windows NT 10.0; Win64; x64) AppleWebKit/537.36 (KHTML, like Gecko) draw.io/26.1.1 Chrome/132.0.6834.210 Electron/34.3.3 Safari/537.36" version="26.1.1">
  <diagram id="R2lEEEUBdFMjLlhIrx00" name="Page-1">
    <mxGraphModel dx="2434" dy="559" grid="0" gridSize="10" guides="1" tooltips="1" connect="1" arrows="1" fold="1" page="1" pageScale="1" pageWidth="1400" pageHeight="850" math="0" shadow="0" extFonts="Permanent Marker^https://fonts.googleapis.com/css?family=Permanent+Marker">
      <root>
        <mxCell id="0" />
        <mxCell id="1" parent="0" />
        <mxCell id="ryigq5SahpJXSNlZDlZl-99" value="" style="endArrow=none;html=1;rounded=0;entryX=0;entryY=0.5;entryDx=0;entryDy=0;exitX=1;exitY=0;exitDx=0;exitDy=0;" parent="1" source="ryigq5SahpJXSNlZDlZl-77" target="ryigq5SahpJXSNlZDlZl-81" edge="1">
          <mxGeometry width="50" height="50" relative="1" as="geometry">
            <mxPoint x="675" y="371" as="sourcePoint" />
            <mxPoint x="725" y="321" as="targetPoint" />
          </mxGeometry>
        </mxCell>
        <mxCell id="ryigq5SahpJXSNlZDlZl-1" value="Person" style="whiteSpace=wrap;html=1;align=center;" parent="1" vertex="1">
          <mxGeometry x="322" y="153" width="100" height="40" as="geometry" />
        </mxCell>
        <mxCell id="ryigq5SahpJXSNlZDlZl-2" value="Name" style="ellipse;whiteSpace=wrap;html=1;align=center;" parent="1" vertex="1">
          <mxGeometry x="236" y="33" width="100" height="40" as="geometry" />
        </mxCell>
        <mxCell id="ryigq5SahpJXSNlZDlZl-3" value="PersonID(PK)" style="ellipse;whiteSpace=wrap;html=1;align=center;" parent="1" vertex="1">
          <mxGeometry x="189" y="61" width="100" height="40" as="geometry" />
        </mxCell>
        <mxCell id="ryigq5SahpJXSNlZDlZl-4" value="Address" style="ellipse;whiteSpace=wrap;html=1;align=center;" parent="1" vertex="1">
          <mxGeometry x="320" y="31" width="100" height="40" as="geometry" />
        </mxCell>
        <mxCell id="ryigq5SahpJXSNlZDlZl-5" value="BirthDate" style="ellipse;whiteSpace=wrap;html=1;align=center;" parent="1" vertex="1">
          <mxGeometry x="386" y="49" width="100" height="40" as="geometry" />
        </mxCell>
        <mxCell id="ryigq5SahpJXSNlZDlZl-6" value="PhoneNumber" style="ellipse;whiteSpace=wrap;html=1;align=center;" parent="1" vertex="1">
          <mxGeometry x="441" y="79" width="100" height="40" as="geometry" />
        </mxCell>
        <mxCell id="ryigq5SahpJXSNlZDlZl-7" value="" style="endArrow=none;html=1;rounded=0;entryX=0.25;entryY=0;entryDx=0;entryDy=0;exitX=0.666;exitY=0.903;exitDx=0;exitDy=0;exitPerimeter=0;" parent="1" source="ryigq5SahpJXSNlZDlZl-2" target="ryigq5SahpJXSNlZDlZl-1" edge="1">
          <mxGeometry width="50" height="50" relative="1" as="geometry">
            <mxPoint x="300" y="107" as="sourcePoint" />
            <mxPoint x="308" y="233" as="targetPoint" />
            <Array as="points" />
          </mxGeometry>
        </mxCell>
        <mxCell id="ryigq5SahpJXSNlZDlZl-8" value="" style="endArrow=none;html=1;rounded=0;exitX=0.624;exitY=0.981;exitDx=0;exitDy=0;exitPerimeter=0;" parent="1" source="ryigq5SahpJXSNlZDlZl-3" edge="1">
          <mxGeometry width="50" height="50" relative="1" as="geometry">
            <mxPoint x="212" y="139" as="sourcePoint" />
            <mxPoint x="319" y="152" as="targetPoint" />
            <Array as="points" />
          </mxGeometry>
        </mxCell>
        <mxCell id="ryigq5SahpJXSNlZDlZl-9" value="" style="endArrow=none;html=1;rounded=0;exitX=0.75;exitY=0;exitDx=0;exitDy=0;entryX=0.354;entryY=1.031;entryDx=0;entryDy=0;entryPerimeter=0;" parent="1" source="ryigq5SahpJXSNlZDlZl-1" target="ryigq5SahpJXSNlZDlZl-5" edge="1">
          <mxGeometry width="50" height="50" relative="1" as="geometry">
            <mxPoint x="400" y="150" as="sourcePoint" />
            <mxPoint x="433" y="105" as="targetPoint" />
          </mxGeometry>
        </mxCell>
        <mxCell id="ryigq5SahpJXSNlZDlZl-10" value="" style="endArrow=none;html=1;rounded=0;exitX=1;exitY=0;exitDx=0;exitDy=0;entryX=0.3;entryY=1;entryDx=0;entryDy=0;entryPerimeter=0;" parent="1" source="ryigq5SahpJXSNlZDlZl-1" target="ryigq5SahpJXSNlZDlZl-6" edge="1">
          <mxGeometry width="50" height="50" relative="1" as="geometry">
            <mxPoint x="425" y="183" as="sourcePoint" />
            <mxPoint x="475" y="133" as="targetPoint" />
          </mxGeometry>
        </mxCell>
        <mxCell id="ryigq5SahpJXSNlZDlZl-11" value="" style="endArrow=none;html=1;rounded=0;entryX=0.5;entryY=1;entryDx=0;entryDy=0;exitX=0.5;exitY=0;exitDx=0;exitDy=0;" parent="1" source="ryigq5SahpJXSNlZDlZl-1" target="ryigq5SahpJXSNlZDlZl-4" edge="1">
          <mxGeometry width="50" height="50" relative="1" as="geometry">
            <mxPoint x="355" y="153" as="sourcePoint" />
            <mxPoint x="405" y="103" as="targetPoint" />
          </mxGeometry>
        </mxCell>
        <mxCell id="ryigq5SahpJXSNlZDlZl-12" value="Position" style="whiteSpace=wrap;html=1;align=center;" parent="1" vertex="1">
          <mxGeometry x="6" y="193" width="100" height="40" as="geometry" />
        </mxCell>
        <mxCell id="ryigq5SahpJXSNlZDlZl-16" value="" style="endArrow=none;html=1;rounded=0;entryX=0;entryY=1;entryDx=0;entryDy=0;" parent="1" target="ryigq5SahpJXSNlZDlZl-1" edge="1">
          <mxGeometry relative="1" as="geometry">
            <mxPoint x="64" y="193" as="sourcePoint" />
            <mxPoint x="224" y="193" as="targetPoint" />
          </mxGeometry>
        </mxCell>
        <mxCell id="ryigq5SahpJXSNlZDlZl-17" value="M" style="resizable=0;html=1;whiteSpace=wrap;align=left;verticalAlign=bottom;" parent="ryigq5SahpJXSNlZDlZl-16" connectable="0" vertex="1">
          <mxGeometry x="-1" relative="1" as="geometry" />
        </mxCell>
        <mxCell id="ryigq5SahpJXSNlZDlZl-18" value="N" style="resizable=0;html=1;whiteSpace=wrap;align=right;verticalAlign=bottom;" parent="ryigq5SahpJXSNlZDlZl-16" connectable="0" vertex="1">
          <mxGeometry x="1" relative="1" as="geometry" />
        </mxCell>
        <mxCell id="ryigq5SahpJXSNlZDlZl-20" value="holds" style="shape=rhombus;perimeter=rhombusPerimeter;whiteSpace=wrap;html=1;align=center;" parent="1" vertex="1">
          <mxGeometry x="166" y="166" width="71" height="56" as="geometry" />
        </mxCell>
        <mxCell id="ryigq5SahpJXSNlZDlZl-21" value="OrganizationalID(FK)" style="ellipse;whiteSpace=wrap;html=1;align=center;fontStyle=4;" parent="1" vertex="1">
          <mxGeometry x="-97" y="260" width="118" height="50" as="geometry" />
        </mxCell>
        <mxCell id="ryigq5SahpJXSNlZDlZl-22" value="Title" style="ellipse;whiteSpace=wrap;html=1;align=center;fontStyle=4;" parent="1" vertex="1">
          <mxGeometry x="-110" y="184" width="72" height="49" as="geometry" />
        </mxCell>
        <mxCell id="ryigq5SahpJXSNlZDlZl-23" value="PositionID(PK)" style="ellipse;whiteSpace=wrap;html=1;align=center;fontStyle=4;" parent="1" vertex="1">
          <mxGeometry x="-97" y="138" width="88" height="41" as="geometry" />
        </mxCell>
        <mxCell id="ryigq5SahpJXSNlZDlZl-24" value="" style="endArrow=none;html=1;rounded=0;entryX=0.33;entryY=0.983;entryDx=0;entryDy=0;entryPerimeter=0;" parent="1" target="ryigq5SahpJXSNlZDlZl-12" edge="1">
          <mxGeometry width="50" height="50" relative="1" as="geometry">
            <mxPoint x="1" y="266" as="sourcePoint" />
            <mxPoint x="51" y="216" as="targetPoint" />
          </mxGeometry>
        </mxCell>
        <mxCell id="ryigq5SahpJXSNlZDlZl-25" value="" style="endArrow=none;html=1;rounded=0;entryX=0;entryY=0.5;entryDx=0;entryDy=0;" parent="1" target="ryigq5SahpJXSNlZDlZl-12" edge="1">
          <mxGeometry width="50" height="50" relative="1" as="geometry">
            <mxPoint x="-38" y="213" as="sourcePoint" />
            <mxPoint x="12" y="163" as="targetPoint" />
          </mxGeometry>
        </mxCell>
        <mxCell id="ryigq5SahpJXSNlZDlZl-27" value="" style="endArrow=none;html=1;rounded=0;entryX=0.25;entryY=0;entryDx=0;entryDy=0;" parent="1" target="ryigq5SahpJXSNlZDlZl-12" edge="1">
          <mxGeometry width="50" height="50" relative="1" as="geometry">
            <mxPoint x="-9" y="161" as="sourcePoint" />
            <mxPoint x="36" y="197" as="targetPoint" />
          </mxGeometry>
        </mxCell>
        <mxCell id="ryigq5SahpJXSNlZDlZl-28" value="PositionHistory" style="whiteSpace=wrap;html=1;align=center;" parent="1" vertex="1">
          <mxGeometry x="6" y="399" width="100" height="40" as="geometry" />
        </mxCell>
        <mxCell id="ryigq5SahpJXSNlZDlZl-29" value="" style="endArrow=none;html=1;rounded=0;exitX=0.5;exitY=0;exitDx=0;exitDy=0;entryX=0.5;entryY=1;entryDx=0;entryDy=0;" parent="1" source="ryigq5SahpJXSNlZDlZl-50" target="ryigq5SahpJXSNlZDlZl-12" edge="1">
          <mxGeometry relative="1" as="geometry">
            <mxPoint x="203" y="258" as="sourcePoint" />
            <mxPoint x="363" y="258" as="targetPoint" />
          </mxGeometry>
        </mxCell>
        <mxCell id="ryigq5SahpJXSNlZDlZl-31" value="N" style="resizable=0;html=1;whiteSpace=wrap;align=right;verticalAlign=bottom;" parent="ryigq5SahpJXSNlZDlZl-29" connectable="0" vertex="1">
          <mxGeometry x="1" relative="1" as="geometry" />
        </mxCell>
        <mxCell id="ryigq5SahpJXSNlZDlZl-32" value="Salary" style="ellipse;whiteSpace=wrap;html=1;align=center;" parent="1" vertex="1">
          <mxGeometry x="155" y="420" width="69" height="40" as="geometry" />
        </mxCell>
        <mxCell id="ryigq5SahpJXSNlZDlZl-33" value="StartDate" style="ellipse;whiteSpace=wrap;html=1;align=center;" parent="1" vertex="1">
          <mxGeometry x="-103" y="417" width="70" height="40" as="geometry" />
        </mxCell>
        <mxCell id="ryigq5SahpJXSNlZDlZl-34" value="Termination" style="ellipse;whiteSpace=wrap;html=1;align=center;" parent="1" vertex="1">
          <mxGeometry x="-96" y="489" width="87" height="40" as="geometry" />
        </mxCell>
        <mxCell id="ryigq5SahpJXSNlZDlZl-35" value="PositionHistoryID(PK)" style="ellipse;whiteSpace=wrap;html=1;align=center;" parent="1" vertex="1">
          <mxGeometry x="-96" y="533" width="121" height="40" as="geometry" />
        </mxCell>
        <mxCell id="ryigq5SahpJXSNlZDlZl-36" value="PersonID(FK)" style="ellipse;whiteSpace=wrap;html=1;align=center;" parent="1" vertex="1">
          <mxGeometry x="123" y="530" width="78" height="40" as="geometry" />
        </mxCell>
        <mxCell id="ryigq5SahpJXSNlZDlZl-37" value="PositionID(FK)" style="ellipse;whiteSpace=wrap;html=1;align=center;" parent="1" vertex="1">
          <mxGeometry x="136" y="484" width="90" height="40" as="geometry" />
        </mxCell>
        <mxCell id="ryigq5SahpJXSNlZDlZl-38" value="" style="endArrow=none;html=1;rounded=0;entryX=0;entryY=1;entryDx=0;entryDy=0;" parent="1" target="ryigq5SahpJXSNlZDlZl-28" edge="1">
          <mxGeometry width="50" height="50" relative="1" as="geometry">
            <mxPoint x="-29" y="492" as="sourcePoint" />
            <mxPoint x="21" y="442" as="targetPoint" />
          </mxGeometry>
        </mxCell>
        <mxCell id="ryigq5SahpJXSNlZDlZl-40" value="" style="endArrow=none;html=1;rounded=0;entryX=0.25;entryY=1;entryDx=0;entryDy=0;exitX=0.697;exitY=0.05;exitDx=0;exitDy=0;exitPerimeter=0;" parent="1" source="ryigq5SahpJXSNlZDlZl-35" target="ryigq5SahpJXSNlZDlZl-28" edge="1">
          <mxGeometry width="50" height="50" relative="1" as="geometry">
            <mxPoint x="16" y="534" as="sourcePoint" />
            <mxPoint x="34" y="454" as="targetPoint" />
          </mxGeometry>
        </mxCell>
        <mxCell id="ryigq5SahpJXSNlZDlZl-41" value="" style="endArrow=none;html=1;rounded=0;entryX=0.5;entryY=1;entryDx=0;entryDy=0;exitX=0;exitY=0;exitDx=0;exitDy=0;" parent="1" source="ryigq5SahpJXSNlZDlZl-36" target="ryigq5SahpJXSNlZDlZl-28" edge="1">
          <mxGeometry width="50" height="50" relative="1" as="geometry">
            <mxPoint x="99" y="536" as="sourcePoint" />
            <mxPoint x="149" y="486" as="targetPoint" />
          </mxGeometry>
        </mxCell>
        <mxCell id="ryigq5SahpJXSNlZDlZl-42" value="" style="endArrow=none;html=1;rounded=0;entryX=1;entryY=1;entryDx=0;entryDy=0;" parent="1" target="ryigq5SahpJXSNlZDlZl-28" edge="1">
          <mxGeometry width="50" height="50" relative="1" as="geometry">
            <mxPoint x="146" y="492" as="sourcePoint" />
            <mxPoint x="131" y="448" as="targetPoint" />
          </mxGeometry>
        </mxCell>
        <mxCell id="ryigq5SahpJXSNlZDlZl-45" value="" style="endArrow=none;html=1;rounded=0;entryX=0;entryY=0.5;entryDx=0;entryDy=0;" parent="1" target="ryigq5SahpJXSNlZDlZl-28" edge="1">
          <mxGeometry width="50" height="50" relative="1" as="geometry">
            <mxPoint x="-33" y="436" as="sourcePoint" />
            <mxPoint x="17" y="386" as="targetPoint" />
          </mxGeometry>
        </mxCell>
        <mxCell id="ryigq5SahpJXSNlZDlZl-46" value="" style="endArrow=none;html=1;rounded=0;entryX=1;entryY=0.5;entryDx=0;entryDy=0;" parent="1" target="ryigq5SahpJXSNlZDlZl-28" edge="1">
          <mxGeometry width="50" height="50" relative="1" as="geometry">
            <mxPoint x="156" y="434" as="sourcePoint" />
            <mxPoint x="206" y="384" as="targetPoint" />
          </mxGeometry>
        </mxCell>
        <mxCell id="ryigq5SahpJXSNlZDlZl-49" value="Organization" style="whiteSpace=wrap;html=1;align=center;" parent="1" vertex="1">
          <mxGeometry x="335" y="436" width="100" height="40" as="geometry" />
        </mxCell>
        <mxCell id="ryigq5SahpJXSNlZDlZl-51" value="" style="endArrow=none;html=1;rounded=0;exitX=0.5;exitY=0;exitDx=0;exitDy=0;entryX=0.5;entryY=1;entryDx=0;entryDy=0;" parent="1" source="ryigq5SahpJXSNlZDlZl-28" target="ryigq5SahpJXSNlZDlZl-50" edge="1">
          <mxGeometry relative="1" as="geometry">
            <mxPoint x="56" y="399" as="sourcePoint" />
            <mxPoint x="56" y="233" as="targetPoint" />
          </mxGeometry>
        </mxCell>
        <mxCell id="ryigq5SahpJXSNlZDlZl-52" value="M" style="resizable=0;html=1;whiteSpace=wrap;align=left;verticalAlign=bottom;" parent="ryigq5SahpJXSNlZDlZl-51" connectable="0" vertex="1">
          <mxGeometry x="-1" relative="1" as="geometry" />
        </mxCell>
        <mxCell id="ryigq5SahpJXSNlZDlZl-50" value="held" style="shape=rhombus;perimeter=rhombusPerimeter;whiteSpace=wrap;html=1;align=center;" parent="1" vertex="1">
          <mxGeometry x="29" y="286" width="55" height="60" as="geometry" />
        </mxCell>
        <mxCell id="ryigq5SahpJXSNlZDlZl-54" value="" style="endArrow=none;html=1;rounded=0;entryX=0;entryY=0;entryDx=0;entryDy=0;" parent="1" target="ryigq5SahpJXSNlZDlZl-49" edge="1">
          <mxGeometry relative="1" as="geometry">
            <mxPoint x="105" y="233" as="sourcePoint" />
            <mxPoint x="265" y="233" as="targetPoint" />
          </mxGeometry>
        </mxCell>
        <mxCell id="ryigq5SahpJXSNlZDlZl-55" value="M" style="resizable=0;html=1;whiteSpace=wrap;align=left;verticalAlign=bottom;" parent="ryigq5SahpJXSNlZDlZl-54" connectable="0" vertex="1">
          <mxGeometry x="-1" relative="1" as="geometry" />
        </mxCell>
        <mxCell id="ryigq5SahpJXSNlZDlZl-56" value="N" style="resizable=0;html=1;whiteSpace=wrap;align=right;verticalAlign=bottom;" parent="ryigq5SahpJXSNlZDlZl-54" connectable="0" vertex="1">
          <mxGeometry x="1" relative="1" as="geometry" />
        </mxCell>
        <mxCell id="ryigq5SahpJXSNlZDlZl-57" value="offers" style="shape=rhombus;perimeter=rhombusPerimeter;whiteSpace=wrap;html=1;align=center;" parent="1" vertex="1">
          <mxGeometry x="172" y="295" width="65" height="65" as="geometry" />
        </mxCell>
        <mxCell id="ryigq5SahpJXSNlZDlZl-58" value="PhoneNumber" style="ellipse;whiteSpace=wrap;html=1;align=center;" parent="1" vertex="1">
          <mxGeometry x="431.5" y="550" width="91" height="40" as="geometry" />
        </mxCell>
        <mxCell id="ryigq5SahpJXSNlZDlZl-59" value="Address" style="ellipse;whiteSpace=wrap;html=1;align=center;" parent="1" vertex="1">
          <mxGeometry x="441" y="503" width="72" height="40" as="geometry" />
        </mxCell>
        <mxCell id="ryigq5SahpJXSNlZDlZl-60" value="OrganizationID(PK)" style="ellipse;whiteSpace=wrap;html=1;align=center;" parent="1" vertex="1">
          <mxGeometry x="229" y="543" width="106" height="40" as="geometry" />
        </mxCell>
        <mxCell id="ryigq5SahpJXSNlZDlZl-61" value="BuggetNumber" style="ellipse;whiteSpace=wrap;html=1;align=center;" parent="1" vertex="1">
          <mxGeometry x="386" y="590" width="95" height="40" as="geometry" />
        </mxCell>
        <mxCell id="ryigq5SahpJXSNlZDlZl-62" value="Type(internal/external" style="ellipse;whiteSpace=wrap;html=1;align=center;" parent="1" vertex="1">
          <mxGeometry x="262" y="583" width="121" height="40" as="geometry" />
        </mxCell>
        <mxCell id="ryigq5SahpJXSNlZDlZl-63" value="Name" style="ellipse;whiteSpace=wrap;html=1;align=center;" parent="1" vertex="1">
          <mxGeometry x="247" y="498" width="78" height="40" as="geometry" />
        </mxCell>
        <mxCell id="ryigq5SahpJXSNlZDlZl-64" value="" style="endArrow=none;html=1;rounded=0;entryX=0;entryY=1;entryDx=0;entryDy=0;" parent="1" target="ryigq5SahpJXSNlZDlZl-49" edge="1">
          <mxGeometry width="50" height="50" relative="1" as="geometry">
            <mxPoint x="305" y="501" as="sourcePoint" />
            <mxPoint x="355" y="451" as="targetPoint" />
          </mxGeometry>
        </mxCell>
        <mxCell id="ryigq5SahpJXSNlZDlZl-65" value="" style="endArrow=none;html=1;rounded=0;entryX=0.167;entryY=0.997;entryDx=0;entryDy=0;entryPerimeter=0;" parent="1" target="ryigq5SahpJXSNlZDlZl-49" edge="1">
          <mxGeometry width="50" height="50" relative="1" as="geometry">
            <mxPoint x="319" y="550" as="sourcePoint" />
            <mxPoint x="356" y="481" as="targetPoint" />
          </mxGeometry>
        </mxCell>
        <mxCell id="ryigq5SahpJXSNlZDlZl-66" value="" style="endArrow=none;html=1;rounded=0;entryX=0.327;entryY=1.019;entryDx=0;entryDy=0;entryPerimeter=0;" parent="1" target="ryigq5SahpJXSNlZDlZl-49" edge="1">
          <mxGeometry width="50" height="50" relative="1" as="geometry">
            <mxPoint x="348" y="585" as="sourcePoint" />
            <mxPoint x="398" y="535" as="targetPoint" />
          </mxGeometry>
        </mxCell>
        <mxCell id="ryigq5SahpJXSNlZDlZl-67" value="" style="endArrow=none;html=1;rounded=0;entryX=0.5;entryY=1;entryDx=0;entryDy=0;" parent="1" target="ryigq5SahpJXSNlZDlZl-49" edge="1">
          <mxGeometry width="50" height="50" relative="1" as="geometry">
            <mxPoint x="409" y="593" as="sourcePoint" />
            <mxPoint x="459" y="543" as="targetPoint" />
          </mxGeometry>
        </mxCell>
        <mxCell id="ryigq5SahpJXSNlZDlZl-68" value="" style="endArrow=none;html=1;rounded=0;entryX=0.75;entryY=1;entryDx=0;entryDy=0;" parent="1" target="ryigq5SahpJXSNlZDlZl-49" edge="1">
          <mxGeometry width="50" height="50" relative="1" as="geometry">
            <mxPoint x="450" y="554" as="sourcePoint" />
            <mxPoint x="500" y="504" as="targetPoint" />
          </mxGeometry>
        </mxCell>
        <mxCell id="ryigq5SahpJXSNlZDlZl-69" value="" style="endArrow=none;html=1;rounded=0;entryX=1;entryY=1;entryDx=0;entryDy=0;" parent="1" target="ryigq5SahpJXSNlZDlZl-49" edge="1">
          <mxGeometry width="50" height="50" relative="1" as="geometry">
            <mxPoint x="462" y="505" as="sourcePoint" />
            <mxPoint x="512" y="455" as="targetPoint" />
          </mxGeometry>
        </mxCell>
        <mxCell id="ryigq5SahpJXSNlZDlZl-70" value="" style="endArrow=none;html=1;rounded=0;exitX=0.5;exitY=1;exitDx=0;exitDy=0;" parent="1" source="ryigq5SahpJXSNlZDlZl-73" edge="1">
          <mxGeometry relative="1" as="geometry">
            <mxPoint x="323" y="309" as="sourcePoint" />
            <mxPoint x="370" y="435" as="targetPoint" />
          </mxGeometry>
        </mxCell>
        <mxCell id="ryigq5SahpJXSNlZDlZl-72" value="M" style="resizable=0;html=1;whiteSpace=wrap;align=right;verticalAlign=bottom;" parent="ryigq5SahpJXSNlZDlZl-70" connectable="0" vertex="1">
          <mxGeometry x="1" relative="1" as="geometry" />
        </mxCell>
        <mxCell id="ryigq5SahpJXSNlZDlZl-74" value="" style="endArrow=none;html=1;rounded=0;exitX=0.5;exitY=1;exitDx=0;exitDy=0;" parent="1" source="ryigq5SahpJXSNlZDlZl-1" target="ryigq5SahpJXSNlZDlZl-73" edge="1">
          <mxGeometry relative="1" as="geometry">
            <mxPoint x="372" y="193" as="sourcePoint" />
            <mxPoint x="379" y="435" as="targetPoint" />
          </mxGeometry>
        </mxCell>
        <mxCell id="ryigq5SahpJXSNlZDlZl-75" value="M" style="resizable=0;html=1;whiteSpace=wrap;align=left;verticalAlign=bottom;" parent="ryigq5SahpJXSNlZDlZl-74" connectable="0" vertex="1">
          <mxGeometry x="-1" relative="1" as="geometry" />
        </mxCell>
        <mxCell id="ryigq5SahpJXSNlZDlZl-73" value="employment" style="shape=rhombus;perimeter=rhombusPerimeter;whiteSpace=wrap;html=1;align=center;" parent="1" vertex="1">
          <mxGeometry x="332" y="268" width="76" height="70" as="geometry" />
        </mxCell>
        <mxCell id="ryigq5SahpJXSNlZDlZl-77" value="Employment" style="whiteSpace=wrap;html=1;align=center;" parent="1" vertex="1">
          <mxGeometry x="637" y="370" width="100" height="40" as="geometry" />
        </mxCell>
        <mxCell id="ryigq5SahpJXSNlZDlZl-78" value="EmploymentID(PK)" style="ellipse;whiteSpace=wrap;html=1;align=center;" parent="1" vertex="1">
          <mxGeometry x="702" y="498" width="110.5" height="40" as="geometry" />
        </mxCell>
        <mxCell id="ryigq5SahpJXSNlZDlZl-79" value="OrganizationID(FK)" style="ellipse;whiteSpace=wrap;html=1;align=center;" parent="1" vertex="1">
          <mxGeometry x="532" y="463" width="110" height="40" as="geometry" />
        </mxCell>
        <mxCell id="ryigq5SahpJXSNlZDlZl-80" value="EmployeeDate" style="ellipse;whiteSpace=wrap;html=1;align=center;" parent="1" vertex="1">
          <mxGeometry x="607" y="506" width="89" height="40" as="geometry" />
        </mxCell>
        <mxCell id="ryigq5SahpJXSNlZDlZl-81" value="PersonID(FK)" style="ellipse;whiteSpace=wrap;html=1;align=center;" parent="1" vertex="1">
          <mxGeometry x="804" y="338" width="100" height="40" as="geometry" />
        </mxCell>
        <mxCell id="ryigq5SahpJXSNlZDlZl-82" value="Termination" style="ellipse;whiteSpace=wrap;html=1;align=center;" parent="1" vertex="1">
          <mxGeometry x="817" y="386" width="79" height="40" as="geometry" />
        </mxCell>
        <mxCell id="ryigq5SahpJXSNlZDlZl-83" value="Bonus" style="ellipse;whiteSpace=wrap;html=1;align=center;" parent="1" vertex="1">
          <mxGeometry x="784" y="444" width="69" height="40" as="geometry" />
        </mxCell>
        <mxCell id="ryigq5SahpJXSNlZDlZl-88" value="" style="endArrow=none;html=1;rounded=0;exitX=0;exitY=0.5;exitDx=0;exitDy=0;entryX=1;entryY=0;entryDx=0;entryDy=0;" parent="1" source="ryigq5SahpJXSNlZDlZl-91" target="ryigq5SahpJXSNlZDlZl-49" edge="1">
          <mxGeometry relative="1" as="geometry">
            <mxPoint x="559" y="541" as="sourcePoint" />
            <mxPoint x="719" y="541" as="targetPoint" />
          </mxGeometry>
        </mxCell>
        <mxCell id="ryigq5SahpJXSNlZDlZl-90" value="N" style="resizable=0;html=1;whiteSpace=wrap;align=right;verticalAlign=bottom;" parent="ryigq5SahpJXSNlZDlZl-88" connectable="0" vertex="1">
          <mxGeometry x="1" relative="1" as="geometry" />
        </mxCell>
        <mxCell id="ryigq5SahpJXSNlZDlZl-92" value="" style="endArrow=none;html=1;rounded=0;exitX=0;exitY=0.75;exitDx=0;exitDy=0;entryX=1;entryY=0;entryDx=0;entryDy=0;" parent="1" source="ryigq5SahpJXSNlZDlZl-77" target="ryigq5SahpJXSNlZDlZl-91" edge="1">
          <mxGeometry relative="1" as="geometry">
            <mxPoint x="637" y="390" as="sourcePoint" />
            <mxPoint x="435" y="436" as="targetPoint" />
          </mxGeometry>
        </mxCell>
        <mxCell id="ryigq5SahpJXSNlZDlZl-93" value="M" style="resizable=0;html=1;whiteSpace=wrap;align=left;verticalAlign=bottom;" parent="ryigq5SahpJXSNlZDlZl-92" connectable="0" vertex="1">
          <mxGeometry x="-1" relative="1" as="geometry" />
        </mxCell>
        <mxCell id="ryigq5SahpJXSNlZDlZl-91" value="worksfor" style="shape=rhombus;perimeter=rhombusPerimeter;whiteSpace=wrap;html=1;align=center;" parent="1" vertex="1">
          <mxGeometry x="502" y="399" width="55" height="54" as="geometry" />
        </mxCell>
        <mxCell id="ryigq5SahpJXSNlZDlZl-95" value="" style="endArrow=none;html=1;rounded=0;entryX=0.136;entryY=1.015;entryDx=0;entryDy=0;entryPerimeter=0;exitX=1;exitY=0;exitDx=0;exitDy=0;" parent="1" source="ryigq5SahpJXSNlZDlZl-79" target="ryigq5SahpJXSNlZDlZl-77" edge="1">
          <mxGeometry width="50" height="50" relative="1" as="geometry">
            <mxPoint x="624" y="452" as="sourcePoint" />
            <mxPoint x="674" y="402" as="targetPoint" />
          </mxGeometry>
        </mxCell>
        <mxCell id="ryigq5SahpJXSNlZDlZl-97" value="" style="endArrow=none;html=1;rounded=0;exitX=0.5;exitY=0;exitDx=0;exitDy=0;entryX=1;entryY=1;entryDx=0;entryDy=0;" parent="1" source="ryigq5SahpJXSNlZDlZl-83" target="ryigq5SahpJXSNlZDlZl-77" edge="1">
          <mxGeometry width="50" height="50" relative="1" as="geometry">
            <mxPoint x="708" y="461" as="sourcePoint" />
            <mxPoint x="687" y="411" as="targetPoint" />
          </mxGeometry>
        </mxCell>
        <mxCell id="ryigq5SahpJXSNlZDlZl-98" value="" style="endArrow=none;html=1;rounded=0;entryX=0.75;entryY=1;entryDx=0;entryDy=0;" parent="1" target="ryigq5SahpJXSNlZDlZl-77" edge="1">
          <mxGeometry width="50" height="50" relative="1" as="geometry">
            <mxPoint x="757" y="498" as="sourcePoint" />
            <mxPoint x="652" y="217" as="targetPoint" />
          </mxGeometry>
        </mxCell>
        <mxCell id="ryigq5SahpJXSNlZDlZl-100" value="" style="endArrow=none;html=1;rounded=0;entryX=0;entryY=0.5;entryDx=0;entryDy=0;exitX=1;exitY=0.725;exitDx=0;exitDy=0;exitPerimeter=0;" parent="1" source="ryigq5SahpJXSNlZDlZl-77" target="ryigq5SahpJXSNlZDlZl-82" edge="1">
          <mxGeometry width="50" height="50" relative="1" as="geometry">
            <mxPoint x="725" y="411" as="sourcePoint" />
            <mxPoint x="725" y="571" as="targetPoint" />
          </mxGeometry>
        </mxCell>
        <mxCell id="ryigq5SahpJXSNlZDlZl-101" value="" style="endArrow=none;html=1;rounded=0;entryX=0.5;entryY=1;entryDx=0;entryDy=0;exitX=0.685;exitY=0.053;exitDx=0;exitDy=0;exitPerimeter=0;" parent="1" source="ryigq5SahpJXSNlZDlZl-80" target="ryigq5SahpJXSNlZDlZl-77" edge="1">
          <mxGeometry width="50" height="50" relative="1" as="geometry">
            <mxPoint x="608" y="363" as="sourcePoint" />
            <mxPoint x="658" y="313" as="targetPoint" />
          </mxGeometry>
        </mxCell>
        <mxCell id="ryigq5SahpJXSNlZDlZl-103" value="" style="endArrow=none;html=1;rounded=0;entryX=1;entryY=1;entryDx=0;entryDy=0;" parent="1" source="ryigq5SahpJXSNlZDlZl-107" target="ryigq5SahpJXSNlZDlZl-1" edge="1">
          <mxGeometry relative="1" as="geometry">
            <mxPoint x="644" y="369" as="sourcePoint" />
            <mxPoint x="470" y="319" as="targetPoint" />
          </mxGeometry>
        </mxCell>
        <mxCell id="ryigq5SahpJXSNlZDlZl-105" value="N" style="resizable=0;html=1;whiteSpace=wrap;align=right;verticalAlign=bottom;" parent="ryigq5SahpJXSNlZDlZl-103" connectable="0" vertex="1">
          <mxGeometry x="1" relative="1" as="geometry" />
        </mxCell>
        <mxCell id="ryigq5SahpJXSNlZDlZl-106" style="edgeStyle=orthogonalEdgeStyle;rounded=0;orthogonalLoop=1;jettySize=auto;html=1;exitX=0.5;exitY=1;exitDx=0;exitDy=0;" parent="1" source="ryigq5SahpJXSNlZDlZl-83" target="ryigq5SahpJXSNlZDlZl-83" edge="1">
          <mxGeometry relative="1" as="geometry" />
        </mxCell>
        <mxCell id="ryigq5SahpJXSNlZDlZl-108" value="" style="endArrow=none;html=1;rounded=0;entryX=1;entryY=1;entryDx=0;entryDy=0;" parent="1" target="ryigq5SahpJXSNlZDlZl-107" edge="1">
          <mxGeometry relative="1" as="geometry">
            <mxPoint x="644" y="369" as="sourcePoint" />
            <mxPoint x="422" y="193" as="targetPoint" />
          </mxGeometry>
        </mxCell>
        <mxCell id="ryigq5SahpJXSNlZDlZl-109" value="M" style="resizable=0;html=1;whiteSpace=wrap;align=left;verticalAlign=bottom;" parent="ryigq5SahpJXSNlZDlZl-108" connectable="0" vertex="1">
          <mxGeometry x="-1" relative="1" as="geometry" />
        </mxCell>
        <mxCell id="ryigq5SahpJXSNlZDlZl-107" value="worksAss" style="shape=rhombus;perimeter=rhombusPerimeter;whiteSpace=wrap;html=1;align=center;" parent="1" vertex="1">
          <mxGeometry x="472" y="230" width="78" height="60" as="geometry" />
        </mxCell>
        <mxCell id="ryigq5SahpJXSNlZDlZl-137" value="" style="line;strokeWidth=2;direction=south;html=1;" parent="1" vertex="1">
          <mxGeometry x="657" y="210" width="10" height="160" as="geometry" />
        </mxCell>
        <mxCell id="ryigq5SahpJXSNlZDlZl-138" value="" style="line;strokeWidth=2;direction=south;html=1;" parent="1" vertex="1">
          <mxGeometry x="712" y="210" width="10" height="160" as="geometry" />
        </mxCell>
        <mxCell id="ryigq5SahpJXSNlZDlZl-141" value="PartTime" style="shape=ext;margin=3;double=1;whiteSpace=wrap;html=1;align=center;" parent="1" vertex="1">
          <mxGeometry x="580" y="170" width="100" height="40" as="geometry" />
        </mxCell>
        <mxCell id="ryigq5SahpJXSNlZDlZl-142" value="Permanent" style="shape=ext;margin=3;double=1;whiteSpace=wrap;html=1;align=center;" parent="1" vertex="1">
          <mxGeometry x="696" y="170" width="100" height="40" as="geometry" />
        </mxCell>
        <mxCell id="ryigq5SahpJXSNlZDlZl-143" value="" style="shape=rhombus;double=1;perimeter=rhombusPerimeter;whiteSpace=wrap;html=1;align=center;" parent="1" vertex="1">
          <mxGeometry x="637" y="257" width="51" height="50" as="geometry" />
        </mxCell>
        <mxCell id="ryigq5SahpJXSNlZDlZl-144" value="" style="shape=rhombus;double=1;perimeter=rhombusPerimeter;whiteSpace=wrap;html=1;align=center;" parent="1" vertex="1">
          <mxGeometry x="692.5" y="260" width="51" height="50" as="geometry" />
        </mxCell>
        <mxCell id="ryigq5SahpJXSNlZDlZl-148" value="EmployeeID(FK)" style="ellipse;whiteSpace=wrap;html=1;align=center;" parent="1" vertex="1">
          <mxGeometry x="551" y="54" width="95" height="40" as="geometry" />
        </mxCell>
        <mxCell id="ryigq5SahpJXSNlZDlZl-149" value="ExtraHours" style="ellipse;whiteSpace=wrap;html=1;align=center;" parent="1" vertex="1">
          <mxGeometry x="631" y="89" width="67" height="40" as="geometry" />
        </mxCell>
        <mxCell id="ryigq5SahpJXSNlZDlZl-150" value="EmployeeID(FK)" style="ellipse;whiteSpace=wrap;html=1;align=center;" parent="1" vertex="1">
          <mxGeometry x="729" y="28" width="100" height="40" as="geometry" />
        </mxCell>
        <mxCell id="ryigq5SahpJXSNlZDlZl-151" value="ExtraBonus" style="ellipse;whiteSpace=wrap;html=1;align=center;" parent="1" vertex="1">
          <mxGeometry x="817" y="54" width="78" height="40" as="geometry" />
        </mxCell>
        <mxCell id="ryigq5SahpJXSNlZDlZl-152" value="Credit" style="ellipse;whiteSpace=wrap;html=1;align=center;" parent="1" vertex="1">
          <mxGeometry x="835" y="107" width="86" height="40" as="geometry" />
        </mxCell>
        <mxCell id="ryigq5SahpJXSNlZDlZl-153" value="" style="endArrow=none;html=1;rounded=0;entryX=0.331;entryY=0.926;entryDx=0;entryDy=0;entryPerimeter=0;" parent="1" target="ryigq5SahpJXSNlZDlZl-150" edge="1">
          <mxGeometry width="50" height="50" relative="1" as="geometry">
            <mxPoint x="736" y="171" as="sourcePoint" />
            <mxPoint x="786" y="121" as="targetPoint" />
          </mxGeometry>
        </mxCell>
        <mxCell id="ryigq5SahpJXSNlZDlZl-155" value="" style="endArrow=none;html=1;rounded=0;entryX=0;entryY=1;entryDx=0;entryDy=0;" parent="1" target="ryigq5SahpJXSNlZDlZl-151" edge="1">
          <mxGeometry width="50" height="50" relative="1" as="geometry">
            <mxPoint x="759" y="170" as="sourcePoint" />
            <mxPoint x="809" y="120" as="targetPoint" />
          </mxGeometry>
        </mxCell>
        <mxCell id="ryigq5SahpJXSNlZDlZl-156" value="" style="endArrow=none;html=1;rounded=0;" parent="1" edge="1">
          <mxGeometry width="50" height="50" relative="1" as="geometry">
            <mxPoint x="797" y="192" as="sourcePoint" />
            <mxPoint x="847" y="142" as="targetPoint" />
          </mxGeometry>
        </mxCell>
        <mxCell id="ryigq5SahpJXSNlZDlZl-157" value="" style="endArrow=none;html=1;rounded=0;entryX=0.5;entryY=1;entryDx=0;entryDy=0;" parent="1" target="ryigq5SahpJXSNlZDlZl-149" edge="1">
          <mxGeometry width="50" height="50" relative="1" as="geometry">
            <mxPoint x="640" y="170" as="sourcePoint" />
            <mxPoint x="690" y="120" as="targetPoint" />
          </mxGeometry>
        </mxCell>
        <mxCell id="ryigq5SahpJXSNlZDlZl-158" value="" style="endArrow=none;html=1;rounded=0;entryX=0.5;entryY=1;entryDx=0;entryDy=0;" parent="1" target="ryigq5SahpJXSNlZDlZl-148" edge="1">
          <mxGeometry width="50" height="50" relative="1" as="geometry">
            <mxPoint x="598" y="171" as="sourcePoint" />
            <mxPoint x="648" y="121" as="targetPoint" />
          </mxGeometry>
        </mxCell>
      </root>
    </mxGraphModel>
  </diagram>
</mxfile>
